<mxfile host="1b57afd7-1a3e-4856-abb8-f81df8d84b9a" modified="2020-09-18T07:11:51.150Z" agent="5.0 (Windows NT 10.0; Win64; x64) AppleWebKit/537.36 (KHTML, like Gecko) Code/1.49.0 Chrome/83.0.4103.122 Electron/9.2.1 Safari/537.36" etag="RUhwdrYQHh4neifEAPGW" version="13.1.3">
    <diagram id="6hGFLwfOUW9BJ-s0fimq" name="Page-1">
        <mxGraphModel dx="931" dy="686" grid="1" gridSize="10" guides="1" tooltips="1" connect="1" arrows="1" fold="1" page="1" pageScale="1" pageWidth="827" pageHeight="1169" math="0" shadow="0">
            <root>
                <mxCell id="0"/>
                <mxCell id="1" parent="0"/>
                <mxCell id="8" style="edgeStyle=orthogonalEdgeStyle;rounded=0;orthogonalLoop=1;jettySize=auto;html=1;exitX=0;exitY=0.5;exitDx=0;exitDy=0;entryX=0.5;entryY=0;entryDx=0;entryDy=0;" edge="1" parent="1" source="2" target="4">
                    <mxGeometry relative="1" as="geometry"/>
                </mxCell>
                <mxCell id="2" value="Sistemas de control inteligente" style="text;html=1;strokeColor=#006666;fillColor=none;align=center;verticalAlign=middle;whiteSpace=wrap;rounded=0;perimeterSpacing=0;strokeWidth=8;dashed=1;dashPattern=1 2;" vertex="1" parent="1">
                    <mxGeometry x="308" y="24" width="210" height="40" as="geometry"/>
                </mxCell>
                <mxCell id="11" style="edgeStyle=orthogonalEdgeStyle;rounded=0;orthogonalLoop=1;jettySize=auto;html=1;exitX=1;exitY=0.5;exitDx=0;exitDy=0;" edge="1" parent="1" source="4">
                    <mxGeometry relative="1" as="geometry">
                        <mxPoint x="321" y="112" as="targetPoint"/>
                        <Array as="points">
                            <mxPoint x="301" y="112"/>
                            <mxPoint x="301" y="112"/>
                        </Array>
                    </mxGeometry>
                </mxCell>
                <mxCell id="15" style="edgeStyle=orthogonalEdgeStyle;rounded=0;orthogonalLoop=1;jettySize=auto;html=1;exitX=0.5;exitY=1;exitDx=0;exitDy=0;" edge="1" parent="1" source="4">
                    <mxGeometry relative="1" as="geometry">
                        <mxPoint x="181" y="164" as="targetPoint"/>
                    </mxGeometry>
                </mxCell>
                <mxCell id="4" value="" style="rounded=1;whiteSpace=wrap;html=1;dashed=1;strokeColor=#006666;strokeWidth=4;" vertex="1" parent="1">
                    <mxGeometry x="108" y="94" width="146" height="35" as="geometry"/>
                </mxCell>
                <mxCell id="5" value="Aplicacion y modelo" style="text;html=1;align=center;verticalAlign=middle;resizable=0;points=[];autosize=1;" vertex="1" parent="1">
                    <mxGeometry x="121" y="101.5" width="120" height="20" as="geometry"/>
                </mxCell>
                <mxCell id="10" value="" style="endArrow=classic;html=1;" edge="1" parent="1">
                    <mxGeometry width="50" height="50" relative="1" as="geometry">
                        <mxPoint x="481" y="111" as="sourcePoint"/>
                        <mxPoint x="541" y="111" as="targetPoint"/>
                    </mxGeometry>
                </mxCell>
                <mxCell id="12" value="Servicios" style="rounded=1;whiteSpace=wrap;html=1;dashed=1;strokeColor=#006666;strokeWidth=4;" vertex="1" parent="1">
                    <mxGeometry x="331" y="94" width="140" height="35" as="geometry"/>
                </mxCell>
                <mxCell id="13" value="Objetos y extracciÃ¶n" style="rounded=1;whiteSpace=wrap;html=1;dashed=1;strokeColor=#006666;strokeWidth=4;" vertex="1" parent="1">
                    <mxGeometry x="551" y="94" width="130" height="35" as="geometry"/>
                </mxCell>
                <mxCell id="14" value="" style="endArrow=classic;html=1;" edge="1" parent="1">
                    <mxGeometry width="50" height="50" relative="1" as="geometry">
                        <mxPoint x="400.5" y="129" as="sourcePoint"/>
                        <mxPoint x="400.5" y="169" as="targetPoint"/>
                    </mxGeometry>
                </mxCell>
                <mxCell id="16" value="" style="endArrow=classic;html=1;" edge="1" parent="1">
                    <mxGeometry width="50" height="50" relative="1" as="geometry">
                        <mxPoint x="619.5" y="129" as="sourcePoint"/>
                        <mxPoint x="619.5" y="169" as="targetPoint"/>
                    </mxGeometry>
                </mxCell>
                <mxCell id="18" value="Capa" style="text;html=1;strokeColor=none;fillColor=none;align=center;verticalAlign=middle;whiteSpace=wrap;rounded=0;dashed=1;" vertex="1" parent="1">
                    <mxGeometry x="121" y="135" width="40" height="20" as="geometry"/>
                </mxCell>
                <mxCell id="19" value="Red" style="text;html=1;align=center;verticalAlign=middle;resizable=0;points=[];autosize=1;" vertex="1" parent="1">
                    <mxGeometry x="421" y="135" width="40" height="20" as="geometry"/>
                </mxCell>
                <mxCell id="20" value="Aplicacion" style="text;html=1;strokeColor=none;fillColor=none;align=center;verticalAlign=middle;whiteSpace=wrap;rounded=0;dashed=1;" vertex="1" parent="1">
                    <mxGeometry x="201" y="135" width="40" height="20" as="geometry"/>
                </mxCell>
                <mxCell id="25" value="Capa" style="text;html=1;strokeColor=none;fillColor=none;align=center;verticalAlign=middle;whiteSpace=wrap;rounded=0;dashed=1;" vertex="1" parent="1">
                    <mxGeometry x="341" y="135" width="40" height="20" as="geometry"/>
                </mxCell>
                <mxCell id="26" value="Capa" style="text;html=1;strokeColor=none;fillColor=none;align=center;verticalAlign=middle;whiteSpace=wrap;rounded=0;dashed=1;" vertex="1" parent="1">
                    <mxGeometry x="551" y="135" width="40" height="20" as="geometry"/>
                </mxCell>
                <mxCell id="28" value="Fisica" style="text;html=1;strokeColor=none;fillColor=none;align=center;verticalAlign=middle;whiteSpace=wrap;rounded=0;dashed=1;" vertex="1" parent="1">
                    <mxGeometry x="636" y="137" width="40" height="20" as="geometry"/>
                </mxCell>
                <mxCell id="60" style="edgeStyle=orthogonalEdgeStyle;rounded=0;orthogonalLoop=1;jettySize=auto;html=1;exitX=0.5;exitY=1;exitDx=0;exitDy=0;" edge="1" parent="1" source="29" target="59">
                    <mxGeometry relative="1" as="geometry"/>
                </mxCell>
                <mxCell id="62" style="edgeStyle=orthogonalEdgeStyle;rounded=0;orthogonalLoop=1;jettySize=auto;html=1;exitX=0.5;exitY=1;exitDx=0;exitDy=0;entryX=0.5;entryY=0;entryDx=0;entryDy=0;" edge="1" parent="1" source="29" target="61">
                    <mxGeometry relative="1" as="geometry"/>
                </mxCell>
                <mxCell id="29" value="Server&lt;br&gt;Local&lt;br&gt;HTTPS&lt;br&gt;Remoto" style="rounded=0;whiteSpace=wrap;html=1;dashed=1;strokeColor=#006666;strokeWidth=4;" vertex="1" parent="1">
                    <mxGeometry x="108" y="174" width="143" height="80" as="geometry"/>
                </mxCell>
                <mxCell id="30" value="Edge Router" style="rounded=0;whiteSpace=wrap;html=1;dashed=1;strokeColor=#006666;strokeWidth=4;" vertex="1" parent="1">
                    <mxGeometry x="331" y="174" width="140" height="40" as="geometry"/>
                </mxCell>
                <mxCell id="31" value="Edger Point" style="rounded=0;whiteSpace=wrap;html=1;dashed=1;strokeColor=#006666;strokeWidth=4;" vertex="1" parent="1">
                    <mxGeometry x="551" y="174" width="140" height="40" as="geometry"/>
                </mxCell>
                <mxCell id="45" style="edgeStyle=orthogonalEdgeStyle;rounded=0;orthogonalLoop=1;jettySize=auto;html=1;exitX=0.5;exitY=1;exitDx=0;exitDy=0;entryX=0;entryY=0.75;entryDx=0;entryDy=0;" edge="1" parent="1" source="33" target="42">
                    <mxGeometry relative="1" as="geometry"/>
                </mxCell>
                <mxCell id="33" value="IP Network&lt;br&gt;" style="rounded=0;whiteSpace=wrap;html=1;dashed=1;strokeColor=#006666;strokeWidth=4;" vertex="1" parent="1">
                    <mxGeometry x="331" y="254" width="140" height="30" as="geometry"/>
                </mxCell>
                <mxCell id="36" value="" style="endArrow=classic;html=1;entryX=0.5;entryY=0;entryDx=0;entryDy=0;exitX=0.5;exitY=1;exitDx=0;exitDy=0;" edge="1" parent="1" source="30" target="33">
                    <mxGeometry width="50" height="50" relative="1" as="geometry">
                        <mxPoint x="361" y="184" as="sourcePoint"/>
                        <mxPoint x="411" y="134" as="targetPoint"/>
                    </mxGeometry>
                </mxCell>
                <mxCell id="50" style="edgeStyle=orthogonalEdgeStyle;rounded=0;orthogonalLoop=1;jettySize=auto;html=1;exitX=1;exitY=0.5;exitDx=0;exitDy=0;entryX=0;entryY=0.5;entryDx=0;entryDy=0;" edge="1" parent="1" source="42" target="48">
                    <mxGeometry relative="1" as="geometry"/>
                </mxCell>
                <mxCell id="53" style="edgeStyle=orthogonalEdgeStyle;rounded=0;orthogonalLoop=1;jettySize=auto;html=1;exitX=1;exitY=0.5;exitDx=0;exitDy=0;entryX=0;entryY=0.5;entryDx=0;entryDy=0;" edge="1" parent="1" source="42" target="47">
                    <mxGeometry relative="1" as="geometry">
                        <Array as="points">
                            <mxPoint x="611" y="329"/>
                            <mxPoint x="611" y="389"/>
                        </Array>
                    </mxGeometry>
                </mxCell>
                <mxCell id="54" style="edgeStyle=orthogonalEdgeStyle;rounded=0;orthogonalLoop=1;jettySize=auto;html=1;exitX=1;exitY=0.5;exitDx=0;exitDy=0;entryX=0;entryY=0.5;entryDx=0;entryDy=0;" edge="1" parent="1" source="42" target="46">
                    <mxGeometry relative="1" as="geometry">
                        <Array as="points">
                            <mxPoint x="611" y="329"/>
                            <mxPoint x="611" y="279"/>
                        </Array>
                    </mxGeometry>
                </mxCell>
                <mxCell id="42" value="&lt;span style=&quot;font-family: &amp;#34;helvetica&amp;#34;&quot;&gt;LoRa gateway&lt;/span&gt;" style="rounded=0;whiteSpace=wrap;html=1;dashed=1;strokeColor=#006666;strokeWidth=4;" vertex="1" parent="1">
                    <mxGeometry x="451" y="314" width="140" height="30" as="geometry"/>
                </mxCell>
                <mxCell id="46" value="&lt;span style=&quot;font-family: &amp;#34;helvetica&amp;#34;&quot;&gt;Camera IP&lt;/span&gt;" style="rounded=0;whiteSpace=wrap;html=1;dashed=1;strokeColor=#006666;strokeWidth=4;" vertex="1" parent="1">
                    <mxGeometry x="648.5" y="264" width="110" height="30" as="geometry"/>
                </mxCell>
                <mxCell id="47" value="&lt;span style=&quot;font-family: &amp;#34;helvetica&amp;#34;&quot;&gt;IOT Device&lt;/span&gt;" style="rounded=0;whiteSpace=wrap;html=1;dashed=1;strokeColor=#006666;strokeWidth=4;" vertex="1" parent="1">
                    <mxGeometry x="651" y="374" width="105" height="30" as="geometry"/>
                </mxCell>
                <mxCell id="48" value="&lt;span style=&quot;font-family: &amp;#34;helvetica&amp;#34;&quot;&gt;Edge Node&lt;/span&gt;" style="rounded=0;whiteSpace=wrap;html=1;dashed=1;strokeColor=#006666;strokeWidth=4;" vertex="1" parent="1">
                    <mxGeometry x="651" y="314" width="105" height="30" as="geometry"/>
                </mxCell>
                <mxCell id="59" value="&lt;span&gt;Aperturas de puestas&amp;nbsp;&lt;/span&gt;&lt;br&gt;&lt;span&gt;Aproximidad Sensor&lt;/span&gt;&lt;br&gt;&lt;span&gt;Ahorro de energia&lt;/span&gt;&lt;br&gt;&lt;span&gt;Temperatura&lt;/span&gt;&lt;br&gt;&lt;span&gt;Humedad&lt;/span&gt;" style="rounded=1;whiteSpace=wrap;html=1;dashed=1;strokeColor=#006666;strokeWidth=4;" vertex="1" parent="1">
                    <mxGeometry x="61" y="314" width="130" height="80" as="geometry"/>
                </mxCell>
                <mxCell id="61" value="Prediccion ante fallas&lt;br&gt;(CBS, Motores, M2M)" style="rounded=1;whiteSpace=wrap;html=1;dashed=1;strokeColor=#006666;strokeWidth=4;" vertex="1" parent="1">
                    <mxGeometry x="211" y="314" width="130" height="50" as="geometry"/>
                </mxCell>
            </root>
        </mxGraphModel>
    </diagram>
</mxfile>